
<svg width="147px" height="31px" viewBox="52 87 147 31" version="1.1" xmlns="http://www.w3.org/2000/svg" xmlns:xlink="http://www.w3.org/1999/xlink">
  <g id="node-logo" stroke="none" stroke-width="1" fill="none" fill-rule="evenodd" transform="translate(52.000000, 87.000000)">
    <path d="M0,18.7833687 C0,11.9922418 4.0832322,6.6192325 12.2929319,6.6192325 L20.029774,6.6192325 C28.2394737,6.6192325 32.3227058,11.9922418 32.3227058,18.7833687 L32.3227058,29.09931 C32.3227058,30.3026164 31.6778174,30.947505 30.4317306,30.947505 C29.1851889,30.947505 28.5835356,30.3026164 28.5835356,29.09931 L28.5835356,18.7833687 C28.5835356,13.8832171 25.6175945,10.014796 19.7289474,10.014796 L12.5937585,10.014796 C6.70511145,10.014796 3.73962539,13.8832171 3.73962539,18.7833687 L3.73962539,29.09931 C3.73962539,30.3026164 3.13751703,30.947505 1.89097523,30.947505 C0.644888545,30.947505 0,30.3026164 0,29.09931 L0,18.7833687 L0,18.7833687 Z" id="Fill-1" fill="#CD2269"></path>
    <path d="M50.3316168,10.014887 C44.4429697,10.014887 41.4770285,13.8833081 41.4770285,18.7834597 C41.4770285,23.6403761 44.4429697,27.5515774 50.3316168,27.5515774 L58.6701121,27.5515774 C64.5587592,27.5515774 67.5247003,23.6403761 67.5247003,18.7834597 C67.5247003,13.8833081 64.5587592,10.014887 58.6701121,10.014887 L50.3316168,10.014887 L50.3316168,10.014887 Z M71.2638706,18.7834597 C71.2638706,25.5313514 67.1806384,30.9471408 58.9709387,30.9471408 L50.03079,30.9471408 C41.8210905,30.9471408 37.7378582,25.5313514 37.7378582,18.7834597 C37.7378582,11.9918777 41.8210905,6.61932353 50.03079,6.61932353 L58.9709387,6.61932353 C67.1806384,6.61932353 71.2638706,11.9918777 71.2638706,18.7834597 L71.2638706,18.7834597 L71.2638706,18.7834597 Z" id="Fill-4" fill="#CD2269"></path>
    <path d="M106.122349,18.7833687 C106.122349,13.8832171 103.156863,10.014796 97.2682161,10.014796 L88.9292656,10.014796 C83.0406186,10.014796 80.0751326,13.8832171 80.0751326,18.7833687 C80.0751326,23.6402852 83.0406186,27.5519415 88.9292656,27.5519415 L97.2682161,27.5519415 C103.156863,27.5519415 106.122349,23.6402852 106.122349,18.7833687 L106.122349,18.7833687 L106.122349,18.7833687 Z M88.628439,30.947505 C80.4187393,30.947505 76.3355071,25.5317155 76.3355071,18.7833687 C76.3355071,11.9922418 80.4187393,6.6192325 88.628439,6.6192325 L96.15047,6.6192325 C101.351448,6.6192325 104.618216,8.81148947 106.122349,12.2070529 L106.122349,1.89111176 C106.122349,0.644569969 106.767238,0.000136532508 107.970544,0.000136532508 C109.217086,0.000136532508 109.861975,0.644569969 109.861975,1.89111176 L109.861975,18.7833687 C109.861975,25.5317155 105.778742,30.947505 97.5690427,30.947505 L88.628439,30.947505 L88.628439,30.947505 Z" id="Fill-6" fill="#CD2269"></path>
    <path d="M119.145639,17.0640148 L141.840073,17.0640148 C142.915039,17.0640148 143.516692,17.6228879 143.516692,18.7401789 C143.516692,19.9007053 142.915039,20.4595784 141.840073,20.4595784 L119.102859,20.4595784 C119.747292,24.5000303 122.669998,27.551987 127.870977,27.551987 L144.548422,27.551987 C145.665713,27.551987 146.267366,28.110405 146.267366,29.2281511 C146.267366,30.3454421 145.665713,30.9475505 144.548422,30.9475505 L127.57015,30.9475505 C119.36045,30.9475505 115.277218,25.531761 115.277218,18.7834142 C115.277218,11.9922873 119.36045,6.61927802 127.57015,6.61927802 L144.548422,6.61927802 C145.665713,6.61927802 146.267366,7.22093127 146.267366,8.3386774 C146.267366,9.45596842 145.665713,10.0148415 144.548422,10.0148415 L127.870977,10.0148415 C122.669998,10.0148415 119.747292,13.0235629 119.145639,17.0640148" id="Fill-9" fill="#CD2269"></path>
  </g>
</svg>
