<svg width="293px" height="62px" viewBox="1004 101 293 62" version="1.1" xmlns="http://www.w3.org/2000/svg" xmlns:xlink="http://www.w3.org/1999/xlink">
  <g id="node-logo" stroke="none" stroke-width="1" fill="none" fill-rule="evenodd" transform="translate(1004.000000, 101.000000)">
    <path d="M0,37.5667374 C0,23.9844836 8.16646441,13.238465 24.5858638,13.238465 L40.0595479,13.238465 C56.4789474,13.238465 64.6454117,23.9844836 64.6454117,37.5667374 L64.6454117,58.1986199 C64.6454117,60.6052327 63.3556347,61.89501 60.8634612,61.89501 C58.3703778,61.89501 57.1670711,60.6052327 57.1670711,58.1986199 L57.1670711,37.5667374 C57.1670711,27.7664341 51.2351889,20.0295919 39.4578947,20.0295919 L25.187517,20.0295919 C13.4102229,20.0295919 7.47925078,27.7664341 7.47925078,37.5667374 L7.47925078,58.1986199 C7.47925078,60.6052327 6.27503405,61.89501 3.78195047,61.89501 C1.28977709,61.89501 0,60.6052327 0,58.1986199 L0,37.5667374 L0,37.5667374 Z" id="Fill-1" fill="#FFFFFF"></path>
    <path d="M100.663234,20.029774 C88.8859394,20.029774 82.9540569,27.7666162 82.9540569,37.5669195 C82.9540569,47.2807522 88.8859394,55.1031548 100.663234,55.1031548 L117.340224,55.1031548 C129.117518,55.1031548 135.049401,47.2807522 135.049401,37.5669195 C135.049401,27.7666162 129.117518,20.029774 117.340224,20.029774 L100.663234,20.029774 L100.663234,20.029774 Z M142.527741,37.5669195 C142.527741,51.0627027 134.361277,61.8942817 117.941877,61.8942817 L100.06158,61.8942817 C83.6421809,61.8942817 75.4757164,51.0627027 75.4757164,37.5669195 C75.4757164,23.9837554 83.6421809,13.2386471 100.06158,13.2386471 L117.941877,13.2386471 C134.361277,13.2386471 142.527741,23.9837554 142.527741,37.5669195 L142.527741,37.5669195 L142.527741,37.5669195 Z" id="Fill-4" fill="#FFFFFF"></path>
    <path d="M212.244698,37.5667374 C212.244698,27.7664341 206.313726,20.0295919 194.536432,20.0295919 L177.858531,20.0295919 C166.081237,20.0295919 160.150265,27.7664341 160.150265,37.5667374 C160.150265,47.2805704 166.081237,55.1038831 177.858531,55.1038831 L194.536432,55.1038831 C206.313726,55.1038831 212.244698,47.2805704 212.244698,37.5667374 L212.244698,37.5667374 L212.244698,37.5667374 Z M177.256878,61.89501 C160.837479,61.89501 152.671014,51.063431 152.671014,37.5667374 C152.671014,23.9844836 160.837479,13.238465 177.256878,13.238465 L192.30094,13.238465 C202.702897,13.238465 209.236432,17.6229789 212.244698,24.4141059 L212.244698,3.78222353 C212.244698,1.28913994 213.534476,0.000273065016 215.941088,0.000273065016 C218.434172,0.000273065016 219.723949,1.28913994 219.723949,3.78222353 L219.723949,37.5667374 C219.723949,51.063431 211.557485,61.89501 195.138085,61.89501 L177.256878,61.89501 L177.256878,61.89501 Z" id="Fill-6" fill="#FFFFFF"></path>
    <path d="M238.291278,34.1280296 L283.680146,34.1280296 C285.830078,34.1280296 287.033384,35.2457758 287.033384,37.4803579 C287.033384,39.8014105 285.830078,40.9191567 283.680146,40.9191567 L238.205718,40.9191567 C239.494585,49.0000606 245.339996,55.1039741 255.741953,55.1039741 L289.096843,55.1039741 C291.331426,55.1039741 292.534732,56.22081 292.534732,58.4563021 C292.534732,60.6908842 291.331426,61.895101 289.096843,61.895101 L255.1403,61.895101 C238.7209,61.895101 230.554436,51.063522 230.554436,37.5668285 C230.554436,23.9845746 238.7209,13.238556 255.1403,13.238556 L289.096843,13.238556 C291.331426,13.238556 292.534732,14.4418625 292.534732,16.6773548 C292.534732,18.9119368 291.331426,20.029683 289.096843,20.029683 L255.741953,20.029683 C245.339996,20.029683 239.494585,26.0471257 238.291278,34.1280296" id="Fill-9" fill="#FFFFFF"></path>
  </g>
</svg>
