<?xml version="1.0" encoding="UTF-8" standalone="no"?>
<svg width="610px" height="50px" viewBox="0 0 610 50" version="1.1" xmlns="http://www.w3.org/2000/svg" xmlns:xlink="http://www.w3.org/1999/xlink">
    <!-- Generator: Sketch 3.8.3 (29802) - http://www.bohemiancoding.com/sketch -->
    <title>sys-logo-colour</title>
    <desc>Created with Sketch.</desc>
    <defs></defs>
    <g id="Lockups" stroke="none" stroke-width="1" fill="none" fill-rule="evenodd">
        <g id="A4" transform="translate(-116.000000, -273.000000)">
            <g id="sys-logo-colour" transform="translate(116.000000, 273.000000)">
                <path d="M265.700561,6 L300.409845,6 C302.405451,6 303.474525,4.85714286 303.474525,3 C303.474525,1.07142857 302.405451,0 300.409845,0 L265.059117,0 C248.239012,0 239.82896,11.0714286 239.82896,25 C239.82896,38.9285714 248.239012,50 265.059117,50 L292.926324,50 C299.839672,50 303.474525,46.1428571 303.474525,39.5714286 L303.474525,25.8571429 C303.474525,23.7142857 302.334179,22.5714286 300.124758,22.5714286 C297.98661,22.5714286 296.846263,23.7142857 296.846263,25.8571429 L296.846263,38.3571429 C296.846263,41.9285714 294.921929,44 291.215805,44 L265.700561,44 C252.871668,44 246.528493,35.6428571 246.528493,25 C246.528493,14.3571429 252.871668,6 265.700561,6 L265.700561,6 Z M373.320722,46.7142857 C373.320722,48.8571429 374.461068,50 376.670489,50 C378.808638,50 379.948984,48.8571429 379.948984,46.7142857 L379.948984,41.2142857 C379.948984,35.2142857 377.026847,30.0714286 371.325117,28.0714286 C377.098119,26 379.948984,20.7857143 379.948984,14.5 C379.948984,6.35714286 375.102513,0 365.3383,0 L317.657579,0 C315.448159,0 314.307813,1.14285714 314.307813,3.28571429 L314.307813,46.7142857 C314.307813,48.8571429 315.448159,50 317.657579,50 C319.795728,50 320.936074,48.8571429 320.936074,46.7142857 L320.936074,31.0714286 L362.131076,31.0714286 C369.757141,31.0714286 373.320722,35.7142857 373.320722,42 L373.320722,46.7142857 Z M363.627781,6 C370.113499,6 373.320722,10.2142857 373.320722,15.5714286 C373.320722,20.9285714 370.113499,25.1428571 363.627781,25.1428571 L320.936074,25.1428571 L320.936074,6 L363.627781,6 Z M432.048545,0 L413.731736,0 C396.911632,0 388.501579,11.0714286 388.501579,25 C388.501579,38.9285714 396.911632,50 413.731736,50 L432.048545,50 C448.86865,50 457.278702,38.9285714 457.278702,25 C457.278702,11.0714286 448.86865,0 432.048545,0 L432.048545,0 Z M450.650441,25 C450.650441,35.6428571 444.235994,44 431.4071,44 L414.373181,44 C401.544288,44 395.201113,35.6428571 395.201113,25 C395.201113,14.3571429 401.544288,6 414.373181,6 L431.4071,6 C444.235994,6 450.650441,14.3571429 450.650441,25 L450.650441,25 Z M473.528634,3.28571429 C473.528634,1.14285714 472.388288,0 470.178867,0 C467.969447,0 466.900372,1.14285714 466.900372,3.28571429 L466.900372,25 C466.900372,38.9285714 475.310424,50 492.130529,50 L507.810288,50 C524.630392,50 533.040445,38.9285714 533.040445,25 L533.040445,3.28571429 C533.040445,1.14285714 531.900098,0 529.76195,0 C527.552529,0 526.412183,1.14285714 526.412183,3.28571429 L526.412183,25 C526.412183,35.6428571 520.069008,44 507.240115,44 L492.700702,44 C479.871809,44 473.528634,35.6428571 473.528634,25 L473.528634,3.28571429 Z M544.23009,46.7142857 C544.23009,48.8571429 545.370436,50 547.579857,50 C549.718006,50 550.858352,48.8571429 550.858352,46.7142857 L550.858352,32.5 L592.837342,32.5 C603.741901,32.5 609.158545,25.2857143 609.158545,16.2142857 C609.158545,7.14285714 603.741901,0 592.837342,0 L547.579857,0 C545.370436,0 544.23009,1.14285714 544.23009,3.28571429 L544.23009,46.7142857 Z M592.267169,6 C599.180517,6 602.530284,10.5714286 602.530284,16.2142857 C602.530284,21.9285714 599.180517,26.5 592.267169,26.5 L550.858352,26.5 L550.858352,6 L592.267169,6 Z" id="GROUP" fill="#EBA7C3"></path>
                <path d="M157.937932,28 L192.718487,28 C198.063859,28 200.772181,31.4285714 200.772181,36 C200.772181,40.6428571 198.063859,44 192.718487,44 L146.890829,44 C144.895223,44 143.826149,45.1428571 143.826149,47 C143.826149,48.9285714 144.895223,50 146.890829,50 L193.359932,50 C202.767787,50 207.471714,43.8571429 207.471714,36 C207.471714,28.1428571 202.767787,22 193.359932,22 L158.579376,22 C153.234004,22 150.525682,18.5714286 150.525682,14 C150.525682,9.35714286 153.234004,6 158.579376,6 L202.767787,6 C204.692121,6 205.761195,4.85714286 205.761195,3 C205.761195,1.07142857 204.692121,0 202.767787,0 L157.937932,0 C148.530076,0 143.826149,6.14285714 143.826149,14 C143.826149,21.8571429 148.530076,28 157.937932,28 Z M130.213268,10 C130.213268,19.2857143 124.65408,26.5 113.464435,26.5 L94.0072797,26.5 C82.7463622,26.5 77.2584467,19.2857143 77.2584467,10 L77.2584467,3.28571429 C77.2584467,1.14285714 76.1181006,0 73.9799517,0 C71.7705312,0 70.6301851,1.14285714 70.6301851,3.28571429 L70.6301851,10 C70.6301851,22.5714286 78.1137062,32.5 93.2945634,32.5 L100.421726,32.5 L100.421726,46.7142857 C100.421726,48.8571429 101.490801,50 103.700221,50 C105.909642,50 107.049988,48.8571429 107.049988,46.7142857 L107.049988,32.5 L114.177151,32.5 C129.358008,32.5 136.841529,22.5714286 136.841529,10 L136.841529,3.28571429 C136.841529,1.14285714 135.629911,0 133.491763,0 C131.282342,0 130.213268,1.14285714 130.213268,3.28571429 L130.213268,10 Z M14.1117827,28 L48.892338,28 C54.2377103,28 56.9460322,31.4285714 56.9460322,36 C56.9460322,40.6428571 54.2377103,44 48.892338,44 L3.06468008,44 C1.06907445,44 0,45.1428571 0,47 C0,48.9285714 1.06907445,50 3.06468008,50 L49.5337827,50 C58.9416378,50 63.6455654,43.8571429 63.6455654,36 C63.6455654,28.1428571 58.9416378,22 49.5337827,22 L14.7532274,22 C9.40785513,22 6.6995332,18.5714286 6.6995332,14 C6.6995332,9.35714286 9.40785513,6 14.7532274,6 L58.9416378,6 C60.8659718,6 61.9350463,4.85714286 61.9350463,3 C61.9350463,1.07142857 60.8659718,0 58.9416378,0 L14.1117827,0 C4.70392757,0 0,6.14285714 0,14 C0,21.8571429 4.70392757,28 14.1117827,28 Z" id="SYS" fill="#CD2269"></path>
            </g>
        </g>
    </g>
</svg>