<?xml version="1.0" encoding="UTF-8" standalone="no"?>
<svg width="370px" height="176px" viewBox="0 0 370 176" version="1.1" xmlns="http://www.w3.org/2000/svg" xmlns:xlink="http://www.w3.org/1999/xlink">
    <!-- Generator: Sketch 3.8.3 (29802) - http://www.bohemiancoding.com/sketch -->
    <title>sys-logo-stacked</title>
    <desc>Created with Sketch.</desc>
    <defs></defs>
    <g id="Lockups" stroke="none" stroke-width="1" fill="none" fill-rule="evenodd">
        <g id="A4" transform="translate(-236.000000, -210.000000)">
            <g id="sys-logo-stacked" transform="translate(236.000000, 210.000000)">
                <path d="M25.8732747,131.55156 L60.584803,131.55156 C62.5805377,131.55156 63.6496813,130.411141 63.6496813,128.557958 C63.6496813,126.6335 62.5805377,125.564356 60.584803,125.564356 L25.2317885,125.564356 C8.41059618,125.564356 0,136.612173 0,150.51104 C0,164.409907 8.41059618,175.457724 25.2317885,175.457724 L53.1007979,175.457724 C60.0145931,175.457724 63.6496813,171.608807 63.6496813,165.051393 L63.6496813,151.366355 C63.6496813,149.228068 62.5092615,148.087648 60.2996981,148.087648 C58.1614109,148.087648 57.0209911,149.228068 57.0209911,151.366355 L57.0209911,163.839697 C57.0209911,167.403509 55.0965326,169.47052 51.3901682,169.47052 L25.8732747,169.47052 C13.0435517,169.47052 6.69996645,161.1312 6.69996645,150.51104 C6.69996645,139.89088 13.0435517,131.55156 25.8732747,131.55156 L25.8732747,131.55156 Z M133.500395,172.179017 C133.500395,174.317304 134.640815,175.457724 136.850379,175.457724 C138.988666,175.457724 140.129086,174.317304 140.129086,172.179017 L140.129086,166.690746 C140.129086,160.703542 137.20676,155.571653 131.504661,153.575918 C137.278036,151.508907 140.129086,146.305742 140.129086,140.033433 C140.129086,131.907942 135.282301,125.564356 125.517457,125.564356 L77.8336528,125.564356 C75.6240894,125.564356 74.4836696,126.704776 74.4836696,128.843063 L74.4836696,172.179017 C74.4836696,174.317304 75.6240894,175.457724 77.8336528,175.457724 C79.97194,175.457724 81.1123598,174.317304 81.1123598,172.179017 L81.1123598,156.56952 L122.310026,156.56952 C129.936583,156.56952 133.500395,161.202476 133.500395,167.474785 L133.500395,172.179017 Z M123.806827,131.55156 C130.292965,131.55156 133.500395,135.756859 133.500395,141.102577 C133.500395,146.448294 130.292965,150.653593 123.806827,150.653593 L81.1123598,150.653593 L81.1123598,131.55156 L123.806827,131.55156 Z M192.232016,125.564356 L173.914023,125.564356 C157.09283,125.564356 148.682234,136.612173 148.682234,150.51104 C148.682234,164.409907 157.09283,175.457724 173.914023,175.457724 L192.232016,175.457724 C209.053208,175.457724 217.463805,164.409907 217.463805,150.51104 C217.463805,136.612173 209.053208,125.564356 192.232016,125.564356 L192.232016,125.564356 Z M210.835114,150.51104 C210.835114,161.1312 204.420253,169.47052 191.59053,169.47052 L174.555509,169.47052 C161.725786,169.47052 155.382201,161.1312 155.382201,150.51104 C155.382201,139.89088 161.725786,131.55156 174.555509,131.55156 L191.59053,131.55156 C204.420253,131.55156 210.835114,139.89088 210.835114,150.51104 L210.835114,150.51104 Z M233.714787,128.843063 C233.714787,126.704776 232.574367,125.564356 230.364804,125.564356 C228.15524,125.564356 227.086097,126.704776 227.086097,128.843063 L227.086097,150.51104 C227.086097,164.409907 235.496693,175.457724 252.317885,175.457724 L267.998658,175.457724 C284.81985,175.457724 293.230447,164.409907 293.230447,150.51104 L293.230447,128.843063 C293.230447,126.704776 292.090027,125.564356 289.95174,125.564356 C287.742176,125.564356 286.601756,126.704776 286.601756,128.843063 L286.601756,150.51104 C286.601756,161.1312 280.258171,169.47052 267.428448,169.47052 L252.888095,169.47052 C240.058372,169.47052 233.714787,161.1312 233.714787,150.51104 L233.714787,128.843063 Z M304.420816,172.179017 C304.420816,174.317304 305.561236,175.457724 307.770799,175.457724 C309.909086,175.457724 311.049506,174.317304 311.049506,172.179017 L311.049506,157.995045 L353.031211,157.995045 C363.936475,157.995045 369.35347,150.796145 369.35347,141.744063 C369.35347,132.69198 363.936475,125.564356 353.031211,125.564356 L307.770799,125.564356 C305.561236,125.564356 304.420816,126.704776 304.420816,128.843063 L304.420816,172.179017 Z M352.461001,131.55156 C359.374796,131.55156 362.724779,136.11324 362.724779,141.744063 C362.724779,147.446162 359.374796,152.007841 352.461001,152.007841 L311.049506,152.007841 L311.049506,131.55156 L352.461001,131.55156 Z" id="GROUP" fill="#EBA7C3"></path>
                <path d="M281.173406,49.7382558 L343.092459,49.7382558 C352.608707,49.7382558 357.430272,55.8286545 357.430272,63.9491861 C357.430272,72.196601 352.608707,78.1601163 343.092459,78.1601163 L261.506493,78.1601163 C257.953761,78.1601163 256.050511,80.1902492 256.050511,83.4892152 C256.050511,86.9150644 257.953761,88.818314 261.506493,88.818314 L344.234408,88.818314 C360.983005,88.818314 369.357303,77.9063497 369.357303,63.9491861 C369.357303,49.9920225 360.983005,39.0800582 344.234408,39.0800582 L282.315355,39.0800582 C272.799107,39.0800582 267.977542,32.9896595 267.977542,24.8691279 C267.977542,16.6217131 272.799107,10.6581977 282.315355,10.6581977 L360.983005,10.6581977 C364.408854,10.6581977 366.312104,8.62806479 366.312104,5.32909884 C366.312104,1.90324959 364.408854,0 360.983005,0 L281.173406,0 C264.424809,0 256.050511,10.9119643 256.050511,24.8691279 C256.050511,38.8262916 264.424809,49.7382558 281.173406,49.7382558 Z M231.8158,17.7636628 C231.8158,34.2584925 221.918902,47.0737064 201.998223,47.0737064 L167.35908,47.0737064 C147.311518,47.0737064 137.541503,34.2584925 137.541503,17.7636628 L137.541503,5.83663206 C137.541503,2.03013289 135.511371,0 131.704871,0 C127.771489,0 125.741356,2.03013289 125.741356,5.83663206 L125.741356,17.7636628 C125.741356,40.0951246 139.064103,57.7319041 166.090247,57.7319041 L178.778578,57.7319041 L178.778578,82.981682 C178.778578,86.7881811 180.681827,88.818314 184.61521,88.818314 C188.548592,88.818314 190.578725,86.7881811 190.578725,82.981682 L190.578725,57.7319041 L203.267056,57.7319041 C230.2932,57.7319041 243.615947,40.0951246 243.615947,17.7636628 L243.615947,5.83663206 C243.615947,2.03013289 241.458931,0 237.652432,0 C233.719049,0 231.8158,2.03013289 231.8158,5.83663206 L231.8158,17.7636628 Z M25.1228945,49.7382558 L87.0419477,49.7382558 C96.5581957,49.7382558 101.379761,55.8286545 101.379761,63.9491861 C101.379761,72.196601 96.5581957,78.1601163 87.0419477,78.1601163 L5.45598215,78.1601163 C1.90324959,78.1601163 0,80.1902492 0,83.4892152 C0,86.9150644 1.90324959,88.818314 5.45598215,88.818314 L88.1838975,88.818314 C104.932494,88.818314 113.306792,77.9063497 113.306792,63.9491861 C113.306792,49.9920225 104.932494,39.0800582 88.1838975,39.0800582 L26.2648443,39.0800582 C16.7485964,39.0800582 11.9270307,32.9896595 11.9270307,24.8691279 C11.9270307,16.6217131 16.7485964,10.6581977 26.2648443,10.6581977 L104.932494,10.6581977 C108.358343,10.6581977 110.261593,8.62806479 110.261593,5.32909884 C110.261593,1.90324959 108.358343,0 104.932494,0 L25.1228945,0 C8.37429818,0 0,10.9119643 0,24.8691279 C0,38.8262916 8.37429818,49.7382558 25.1228945,49.7382558 Z" id="SYS" fill="#fff"></path>
            </g>
        </g>
    </g>
</svg>